<svg width="212" height="212" viewBox="0 0 212 212" fill="none" xmlns="http://www.w3.org/2000/svg">
<g clip-path="url(#clip0_605_3432)">
<path d="M175.2 0H36.61C16.3909 0 0 16.3909 0 36.61V175.2C0 195.419 16.3909 211.81 36.61 211.81H175.2C195.419 211.81 211.81 195.419 211.81 175.2V36.61C211.81 16.3909 195.419 0 175.2 0Z" fill="url(#paint0_linear_605_3432)"/>
<path opacity="0.5" d="M137.45 59.8099C127.253 59.8093 117.253 62.6181 108.547 67.9279C99.8412 73.2377 92.7668 80.8433 88.1 89.9099H31.4099V59.8099H137.45Z" fill="white"/>
<path d="M180.4 72.7399L176.67 76.0399L160.77 90.0399V89.9099H137.69C130.893 89.9099 124.373 92.6103 119.567 97.4168C114.76 102.223 112.06 108.742 112.06 115.54V172.91H81.9801V115.33C81.9495 106.489 84.045 97.7709 88.0901 89.9099C92.7582 80.8452 99.8332 73.2416 108.539 67.9336C117.244 62.6256 127.244 59.8184 137.44 59.8199H160.76V59.6799L180.4 72.7399Z" fill="white"/>
</g>
<defs>
<linearGradient id="paint0_linear_605_3432" x1="103.03" y1="-17.63" x2="108.28" y2="208.13" gradientUnits="userSpaceOnUse">
<stop offset="0.02" stop-color="#86D8CE"/>
<stop offset="1" stop-color="#3EB07F"/>
</linearGradient>
<clipPath id="clip0_605_3432">
<rect width="211.81" height="211.81" fill="white"/>
</clipPath>
</defs>
</svg>
