<svg width="670" height="126" viewBox="0 0 670 126" fill="none" xmlns="http://www.w3.org/2000/svg">
<g clip-path="url(#clip0_602_3450)">
<g opacity="0.5">
<path d="M107.97 0.0747311C101.853 0.0623351 95.7741 1.04706 89.9752 2.98999C85.1256 4.61887 80.516 6.88645 76.2689 9.73253C72.1682 12.4512 68.4121 15.6538 65.082 19.2707H0V0.0747311H107.97Z" fill="white"/>
<path d="M414.156 38.5714C410.491 47.276 408.615 56.6247 408.637 66.0648V67.5598L361.31 -0.0149384H386.368L414.156 38.5714Z" fill="white"/>
</g>
<path d="M237.774 79.0266L278.908 34.5947H254.03L219.404 70.4751V34.5947H199.625V123.982H219.329V86.7409L255.005 123.907H280.138L237.774 79.0266Z" fill="white"/>
<path d="M372.722 79.4452C372.722 66.0199 368.153 54.8322 359.016 45.882C349.878 36.9319 338.452 32.4468 324.735 32.4269C311.129 32.4269 299.762 36.9119 290.635 45.882C281.84 54.7845 276.911 66.7782 276.911 79.2733C276.911 91.7683 281.84 103.762 290.635 112.664C299.762 121.635 311.129 126.12 324.735 126.12C334.979 126.308 345.035 123.371 353.557 117.703C360.883 112.925 366.624 106.088 370.053 98.0582H348.009C345.891 100.945 343.122 103.296 339.926 104.92C335.297 107.31 330.143 108.512 324.93 108.419C318.591 108.569 312.4 106.489 307.445 102.543C302.552 98.5866 299.221 93.031 298.043 86.8605H372.212C372.598 84.4083 372.769 81.927 372.722 79.4452V79.4452ZM298.178 70.6694C299.637 64.7659 303.05 59.5251 307.865 55.794C312.672 52.0425 318.632 50.0621 324.735 50.1877C330.855 50.0777 336.831 52.0363 341.692 55.7446C346.552 59.4528 350.01 64.6922 351.503 70.6096L298.178 70.6694Z" fill="white"/>
<path d="M528.844 45.8223C519.657 36.8522 508.26 32.3671 494.653 32.3671C481.047 32.3671 469.625 36.8522 460.388 45.8223C451.604 54.7303 446.682 66.7219 446.682 79.2135C446.682 91.705 451.604 103.697 460.388 112.605C469.535 121.575 480.957 126.06 494.653 126.06C508.35 126.06 519.746 121.575 528.844 112.605C537.689 103.729 542.653 91.7251 542.653 79.2135C542.653 66.7018 537.689 54.6982 528.844 45.8223V45.8223ZM514.358 99.1047C509.07 104.215 501.995 107.073 494.631 107.073C487.267 107.073 480.191 104.215 474.904 99.1047C469.765 93.7466 466.897 86.6191 466.897 79.206C466.897 71.7929 469.765 64.6654 474.904 59.3073C480.195 54.2041 487.269 51.3512 494.631 51.3512C501.993 51.3512 509.067 54.2041 514.358 59.3073C519.442 64.6929 522.274 71.8101 522.274 79.206C522.274 86.6019 519.442 93.7191 514.358 99.1047Z" fill="white"/>
<path d="M615.625 34.5947V85.4252C615.735 88.3262 615.242 91.2185 614.176 93.9201C613.11 96.6217 611.495 99.0741 609.432 101.123C607.269 103.142 604.724 104.711 601.946 105.738C599.167 106.765 596.212 107.229 593.251 107.103C590.449 107.231 587.65 106.774 585.034 105.763C582.418 104.751 580.043 103.206 578.06 101.228C576.122 99.1517 574.619 96.7115 573.638 94.0495C572.657 91.3875 572.218 88.5573 572.347 85.7243V34.5947H552.672V91.5548C552.672 101.95 555.812 110.302 562.09 116.611C568.368 122.92 576.651 126.05 586.938 126C599.235 126 608.787 121.321 615.595 111.962V123.922H635.27V34.5947H615.625Z" fill="white"/>
<path d="M160.336 34.5947V48.4385C156.259 42.6446 150.624 38.1155 144.08 35.3721C144.08 35.3721 144.08 35.3721 144.08 35.3721C139.255 33.4506 134.1 32.4907 128.904 32.5465C122.995 32.411 117.126 33.5421 111.693 35.8634C106.26 38.1847 101.39 41.6421 97.4131 46.0016C89.0154 54.9718 84.8166 66.0996 84.8166 79.3854C84.8166 91.5548 88.3156 101.895 95.3137 110.407C95.9585 111.199 96.6483 111.992 97.3831 112.769C101.36 117.129 106.23 120.586 111.663 122.907C117.096 125.229 122.965 126.36 128.874 126.224C130.659 126.227 132.441 126.122 134.213 125.91V125.91C144.88 124.645 153.583 119.437 160.321 110.287V124.146H180.01V34.5947H160.336ZM152.433 99.1794C149.992 101.676 147.079 103.665 143.861 105.031C140.643 106.396 137.185 107.111 133.688 107.133H132.743C129.06 107.237 125.395 106.583 121.976 105.212C118.557 103.841 115.459 101.783 112.874 99.1644C107.796 93.7754 104.969 86.6596 104.969 79.2658C104.969 71.872 107.796 64.7561 112.874 59.3671C118.185 54.2606 125.275 51.4071 132.653 51.4071C140.032 51.4071 147.122 54.2606 152.433 59.3671C153.263 60.1951 154.035 61.0792 154.742 62.0133C158.742 67.5106 160.699 74.2239 160.278 81.0022C159.856 87.7805 157.083 94.2016 152.433 99.1644V99.1794Z" fill="white"/>
<path d="M135.728 8.35714L123.266 19.3156H111.569C106.281 19.3128 101.046 20.3597 96.1685 22.3953L95.6586 22.6046H95.5686C79.523 29.5266 68.1712 46.5249 68.1712 66.4385V123.877H47.192V66.0947C47.0656 48.7851 53.4915 32.0646 65.187 19.2707C68.5171 15.6538 72.2732 12.4512 76.3739 9.73253C80.621 6.88645 85.2306 4.61887 90.0802 2.98999C95.8791 1.04706 101.958 0.0623351 108.075 0.0747311H123.371L135.728 8.35714Z" fill="white"/>
<path d="M497.173 8.35715L484.711 19.3156H472.969C467.682 19.3156 462.447 20.3624 457.569 22.3953L457.059 22.6047C441.013 29.5266 429.661 46.5249 429.661 66.4385V123.877H408.637V66.0947C408.615 56.6546 410.491 47.3058 414.156 38.6013V38.6013C419.024 26.8933 427.231 16.8664 437.759 9.76247C442.013 6.91922 446.627 4.65187 451.48 3.01993C457.279 1.07674 463.358 0.0919638 469.475 0.104628H484.786L497.173 8.35715Z" fill="white"/>
<path d="M646.187 2.87042H641.688V0.911957L652.89 1.09135V3.04982L648.391 2.97509L648.181 15.593H645.902L646.187 2.87042Z" fill="white"/>
<path d="M655.229 1.06148H657.853L662.352 12.7525H662.427L667.346 1.21099H669.97L669.73 15.7874H667.661L667.841 5.05315H666.791L669.22 1.65948L663.222 15.7276H661.542L655.919 1.48008L658.243 4.93357H657.193L657.014 15.6827H654.944L655.229 1.06148Z" fill="white"/>
</g>
<defs>
<clipPath id="clip0_602_3450">
<rect width="670" height="126" fill="white"/>
</clipPath>
</defs>
</svg>
